<svg width="76" height="76" viewBox="0 0 76 76" fill="none" xmlns="http://www.w3.org/2000/svg">
<g id="map:art-gallery">
<path id="Vector" d="M32.2407 9.12C13.0401 9.12 1.52 24.5222 1.52 32.224C1.52 39.9258 5.35952 45.7018 13.0401 45.7018C20.7206 45.7018 24.5617 47.6262 24.5617 53.4022C24.5617 61.1025 30.321 66.8785 38.0015 66.8785C62.963 66.8785 74.4815 53.4022 74.4815 39.9258C74.48 16.8218 55.2763 9.12 32.2407 9.12ZM27.4406 16.8218C28.0717 16.8226 28.6966 16.9477 29.2794 17.19C29.8622 17.4323 30.3916 17.787 30.8373 18.2338C31.283 18.6807 31.6364 19.211 31.8772 19.7944C32.118 20.3778 32.2415 21.003 32.2407 21.6342C32.2407 24.2942 30.0914 26.448 27.4406 26.448C24.7897 26.448 22.6404 24.2926 22.6404 21.6342C22.6396 21.003 22.7631 20.3778 23.0039 19.7944C23.2447 19.211 23.5981 18.6807 24.0438 18.2338C24.4896 17.787 25.0189 17.4323 25.6018 17.19C26.1846 16.9477 26.8094 16.8226 27.4406 16.8218ZM42.7986 16.8218C43.4298 16.8226 44.0546 16.9477 44.6374 17.19C45.2203 17.4323 45.7496 17.787 46.1954 18.2338C46.6411 18.6807 46.9945 19.211 47.2353 19.7944C47.4761 20.3778 47.5996 21.003 47.5988 21.6342C47.5998 22.2654 47.4764 22.8908 47.2357 23.4744C46.995 24.058 46.6417 24.5884 46.1959 25.0354C45.7502 25.4825 45.2207 25.8373 44.6378 26.0797C44.0549 26.322 43.4299 26.4472 42.7986 26.448C42.1675 26.447 41.5427 26.3217 40.9599 26.0792C40.3772 25.8368 39.8479 25.4819 39.4023 25.0349C38.9567 24.5879 38.6036 24.0575 38.3629 23.474C38.1223 22.8905 37.999 22.2653 38 21.6342C37.9984 20.3597 38.503 19.1368 39.4029 18.2344C40.3028 17.3319 41.5242 16.8238 42.7986 16.8218ZM58.1598 24.5222C58.7912 24.5228 59.4163 24.6478 59.9994 24.89C60.5825 25.1323 61.1121 25.4871 61.558 25.9342C62.0039 26.3812 62.3574 26.9117 62.5982 27.4954C62.839 28.0791 62.9624 28.7046 62.9614 29.336C62.9624 29.9673 62.839 30.5927 62.5982 31.1763C62.3574 31.7599 62.0039 32.2904 61.5579 32.7373C61.112 33.1842 60.5824 33.5389 59.9993 33.781C59.4162 34.0231 58.7911 34.1479 58.1598 34.1483C57.5286 34.1477 56.9038 34.0227 56.3209 33.7805C55.7381 33.5383 55.2088 33.1836 54.7631 32.7367C54.3175 32.2897 53.9642 31.7594 53.7237 31.1758C53.4831 30.5923 53.3599 29.9671 53.3611 29.336C53.3599 28.7048 53.4831 28.0795 53.7237 27.4959C53.9642 26.9123 54.3174 26.3818 54.763 25.9348C55.2086 25.4878 55.738 25.1329 56.3208 24.8905C56.9037 24.6481 57.5285 24.523 58.1598 24.5222ZM14.0007 28.3738C14.6317 28.3744 15.2565 28.4994 15.8392 28.7415C16.4219 28.9836 16.9512 29.3382 17.3968 29.785C17.8425 30.2317 18.1957 30.7619 18.4364 31.3452C18.677 31.9286 18.8004 32.5536 18.7994 33.1846C18.7994 35.8446 16.6501 37.9985 14.0007 37.9985C11.3514 37.9985 9.20056 35.8431 9.20056 33.1846C9.19935 31.9102 9.70435 30.6875 10.6045 29.7853C11.5047 28.8832 12.7263 28.3754 14.0007 28.3738ZM38 47.6262C41.1814 47.6262 43.7593 50.2102 43.7593 53.4037C43.7593 56.5926 41.1814 59.1782 38 59.1782C34.8186 59.1782 32.2407 56.5926 32.2407 53.4037C32.2393 52.6461 32.3872 51.8957 32.6759 51.1953C32.9646 50.4949 33.3885 49.8582 33.9234 49.3217C34.4582 48.7851 35.0935 48.3593 35.793 48.0683C36.4925 47.7774 37.2424 47.6272 38 47.6262Z" fill="black"/>
</g>
</svg>
