<svg width="92" height="92" viewBox="0 0 92 92" fill="none" xmlns="http://www.w3.org/2000/svg">
<g id="ph:guitar">
<path id="Vector" d="M88.2841 15.2159L76.7841 3.71593C76.2969 3.22945 75.6514 2.93393 74.9648 2.88311C74.2782 2.83228 73.5962 3.02953 73.0427 3.43897C72.4892 3.84842 72.101 4.44289 71.9488 5.1143C71.7965 5.78571 71.8902 6.48947 72.2128 7.09765L50.4994 28.8075C42.3092 24.5453 33.138 24.9011 27.582 30.4534C26.1158 31.9259 24.9673 33.6836 24.2075 35.6176C23.9742 36.142 23.5935 36.5872 23.1118 36.8992C22.6301 37.2112 22.0681 37.3765 21.4942 37.375C16.2509 37.5511 11.6977 39.4306 8.32312 42.8051C3.98187 47.1572 2.15625 53.4031 3.14094 60.4002C4.09687 67.0953 7.57203 73.7258 12.9375 79.0625C18.303 84.3992 24.9191 87.8887 31.625 88.8447C32.8267 89.0243 34.0397 89.1179 35.2547 89.125C40.7603 89.125 45.6155 87.2455 49.1841 83.6769C52.5586 80.3023 54.4381 75.7491 54.6142 70.5058C54.6136 69.9307 54.7805 69.3678 55.0945 68.886C55.4085 68.4042 55.856 68.0242 56.3823 67.7925C58.3167 67.0332 60.0744 65.8846 61.5466 64.418C67.0989 58.862 67.4547 49.6836 63.1925 41.5006L84.9023 19.7872C85.5105 20.1098 86.2143 20.2035 86.8857 20.0512C87.5571 19.8989 88.1516 19.5108 88.561 18.9573C88.9705 18.4038 89.1677 17.7218 89.1169 17.0352C89.0661 16.3486 88.7705 15.7031 88.2841 15.2159ZM71.875 24.6819L67.3181 20.125L76.1875 11.252L80.748 15.8125L71.875 24.6819ZM57.5 60.3498C56.5836 61.2623 55.4886 61.9756 54.2836 62.445C52.7176 63.0902 51.3736 64.178 50.4162 65.5752C49.4588 66.9724 48.9295 68.6184 48.893 70.3117C48.7636 74.0708 47.4555 77.2872 45.1447 79.6123C42.1116 82.6419 37.5978 83.9069 32.4372 83.1665C26.9531 82.3867 21.4655 79.4901 16.9877 75.0123C12.5098 70.5345 9.61328 65.0469 8.83344 59.588C8.11469 54.4237 9.35812 49.9136 12.3877 46.8805C14.7128 44.5625 17.9292 43.2616 21.6883 43.125C23.3819 43.0894 25.0282 42.5604 26.4256 41.6029C27.8229 40.6454 28.9105 39.3009 29.555 37.7344C30.0222 36.5229 30.7356 35.4216 31.6502 34.5C33.6231 32.527 36.322 31.5783 39.3336 31.5783C41.7028 31.6162 44.0403 32.1282 46.2084 33.0841L38.9922 40.3183C36.838 40.5555 34.7947 41.3965 33.0978 42.7445C31.4008 44.0925 30.1193 45.8926 29.401 47.9372C28.6826 49.9819 28.5566 52.1879 29.0375 54.3011C29.5184 56.4142 30.5866 58.3485 32.1191 59.8809C33.6515 61.4133 35.5858 62.4816 37.6989 62.9625C39.8121 63.4434 42.0181 63.3174 44.0628 62.599C46.1074 61.8807 47.9075 60.5992 49.2555 58.9022C50.6035 57.2053 51.4445 55.162 51.6817 53.0078L58.898 45.7916C61.2411 51.2864 60.9033 56.9286 57.5 60.3498ZM53.7625 38.2555C54.5221 39.0195 55.2338 39.8296 55.8936 40.6812L50.352 46.2228C49.2949 44.3032 47.7147 42.7231 45.7952 41.6659L51.3367 36.1208C52.1822 36.7824 52.9864 37.4953 53.7445 38.2555H53.7625ZM40.25 46C41.775 46 43.2375 46.6058 44.3159 47.6841C45.3942 48.7625 46 50.225 46 51.75C46 52.8872 45.6628 53.9989 45.0309 54.9445C44.3991 55.8901 43.5011 56.6271 42.4504 57.0623C41.3998 57.4975 40.2436 57.6114 39.1282 57.3895C38.0128 57.1676 36.9883 56.62 36.1841 55.8159C35.38 55.0117 34.8323 53.9872 34.6105 52.8718C34.3886 51.7564 34.5025 50.6002 34.9377 49.5496C35.3729 48.4989 36.1099 47.6009 37.0555 46.969C38.0011 46.3372 39.1128 46 40.25 46ZM57.8055 34.1945C57.0425 33.434 56.24 32.7142 55.4013 32.0383L63.25 24.1895L67.8105 28.75L59.9653 36.5916C59.2884 35.7547 58.5687 34.9535 57.8091 34.1909L57.8055 34.1945ZM33.6555 69.8409C34.1949 70.3799 34.4982 71.1111 34.4985 71.8737C34.4989 72.6363 34.1963 73.3678 33.6573 73.9073C33.1183 74.4467 32.3871 74.75 31.6245 74.7503C30.8619 74.7507 30.1304 74.448 29.5909 73.9091L18.0909 62.4091C17.5519 61.8696 17.2493 61.1381 17.2497 60.3755C17.25 59.6129 17.5533 58.8817 18.0927 58.3427C18.6322 57.8037 19.3637 57.5011 20.1263 57.5015C20.8889 57.5018 21.6201 57.8051 22.1591 58.3445L33.6555 69.8409Z" fill="black"/>
</g>
</svg>
