<svg width="45" height="46" viewBox="0 0 45 46" fill="none" xmlns="http://www.w3.org/2000/svg">
<g id="mdi:account">
<path id="Vector" d="M22.3915 7.52615C24.371 7.52615 26.2695 8.31908 27.6692 9.73051C29.069 11.1419 29.8553 13.0562 29.8553 15.0523C29.8553 17.0484 29.069 18.9627 27.6692 20.3741C26.2695 21.7855 24.371 22.5784 22.3915 22.5784C20.412 22.5784 18.5135 21.7855 17.1138 20.3741C15.714 18.9627 14.9277 17.0484 14.9277 15.0523C14.9277 13.0562 15.714 11.1419 17.1138 9.73051C18.5135 8.31908 20.412 7.52615 22.3915 7.52615ZM22.3915 26.3415C30.639 26.3415 37.3192 29.7095 37.3192 33.8677V37.6307H7.46384V33.8677C7.46384 29.7095 14.144 26.3415 22.3915 26.3415Z" fill="black"/>
</g>
</svg>
