<svg width="79" height="79" viewBox="0 0 79 79" fill="none" xmlns="http://www.w3.org/2000/svg">
<g id="mdi:toys-outline">
<path id="Vector" d="M39.5 75.7083H36.2083V54.0821C32.6863 57.275 27.9792 59.25 23.0417 59.25C12.3438 59.25 3.29167 50.1979 3.29167 39.5V36.2083H24.9179C21.725 32.6863 19.75 27.9792 19.75 23.0417C19.75 12.3438 28.8021 3.29167 39.5 3.29167H42.7917V24.9179C46.3138 21.725 51.0208 19.75 55.9583 19.75C66.6563 19.75 75.7083 28.8021 75.7083 39.5V42.7917H54.0821C57.275 46.3138 59.25 51.0208 59.25 55.9583C59.25 66.6563 50.1979 75.7083 39.5 75.7083ZM42.7917 43.2196V68.6971C48.3875 67.1829 52.6667 61.9821 52.6667 55.9583C52.6667 49.9346 48.3875 44.7338 42.7917 43.2196ZM10.3029 42.7917C11.8171 48.3875 17.0179 52.6667 23.0417 52.6667C29.0654 52.6667 34.2663 48.3875 35.7804 42.7917H10.3029ZM43.2196 36.2083H68.6971C67.1829 30.6125 61.9492 26.3333 55.9583 26.3333C49.9675 26.3333 44.7338 30.6125 43.2196 36.2083ZM36.2083 10.3029C30.6125 11.8171 26.3333 17.0508 26.3333 23.0417C26.3333 29.0325 30.6125 34.2663 36.2083 35.7804V10.3029Z" fill="black"/>
</g>
</svg>
