<svg width="99" height="87" viewBox="0 0 99 87" fill="none" xmlns="http://www.w3.org/2000/svg">
<g id="mdi:toys-outline">
<path id="Vector" d="M49.865 82.5283H45.7858V59.1164C41.4211 62.5729 35.5879 64.711 29.4692 64.711C16.2119 64.711 4.99426 54.9115 4.99426 43.3303V39.7668H31.7943C27.8375 35.9539 25.39 30.8582 25.39 25.513C25.39 13.9318 36.6077 4.13228 49.865 4.13228H53.9441V27.5442C58.3088 24.0876 64.142 21.9496 70.2608 21.9496C83.518 21.9496 94.7357 31.7491 94.7357 43.3303V46.8937H67.9356C71.8924 50.7066 74.3399 55.8024 74.3399 61.1476C74.3399 72.7288 63.1222 82.5283 49.865 82.5283ZM53.9441 47.357V74.9381C60.8787 73.299 66.1816 67.6687 66.1816 61.1476C66.1816 54.6264 60.8787 48.9962 53.9441 47.357ZM13.6829 46.8937C15.5593 52.9516 22.0043 57.5841 29.4692 57.5841C36.9341 57.5841 43.3791 52.9516 45.2555 46.8937H13.6829ZM54.4744 39.7668H86.0471C84.1707 33.709 77.6848 29.0765 70.2608 29.0765C62.8367 29.0765 56.3508 33.709 54.4744 39.7668ZM45.7858 11.7224C38.8513 13.3616 33.5484 19.0275 33.5484 25.513C33.5484 31.9985 38.8513 37.6644 45.7858 39.3036V11.7224Z" fill="black"/>
</g>
</svg>
