<svg width="77" height="77" viewBox="0 0 77 77" fill="none" xmlns="http://www.w3.org/2000/svg">
<g id="fluent-emoji-high-contrast:thread">
<path id="Vector" d="M46.9219 7.82031C53.7364 7.82031 58.8641 11.4658 61.3594 16.1796C61.3735 15.0103 61.7658 13.877 62.4776 12.9493C63.1894 12.0215 64.1825 11.3491 65.3082 11.0327C66.434 10.7164 67.632 10.773 68.7229 11.1941C69.8138 11.6153 70.739 12.3783 71.3602 13.369C71.9813 14.3598 72.265 15.5251 72.1687 16.6905C72.0725 17.8559 71.6015 18.9588 70.8262 19.8343C70.051 20.7097 69.0131 21.3106 67.8679 21.5471C66.7227 21.7836 65.5317 21.6429 64.4731 21.1461C64.4417 21.1774 64.4087 21.2071 64.3744 21.2352L63.0341 22.2747C63.1689 25.706 61.9609 29.1565 59.1432 31.7601C56.2196 34.4647 51.7464 36.0938 45.7188 36.0938V60.1562H46.9219C48.5173 60.1562 50.0474 60.79 51.1756 61.9182C52.3037 63.0463 52.9375 64.5764 52.9375 66.1719C52.9375 67.7673 52.3037 69.2974 51.1756 70.4256C50.0474 71.5537 48.5173 72.1875 46.9219 72.1875H10.8281C9.23268 72.1875 7.70258 71.5537 6.57444 70.4256C5.44629 69.2974 4.8125 67.7673 4.8125 66.1719C4.8125 64.5764 5.44629 63.0463 6.57444 61.9182C7.70258 60.79 9.23268 60.1562 10.8281 60.1562H12.0312V26.4688H10.8281C9.23268 26.4688 7.70258 25.835 6.57444 24.7068C5.44629 23.5787 4.8125 22.0486 4.8125 20.4531C4.8125 18.8577 5.44629 17.3276 6.57444 16.1994C7.70258 15.0713 9.23268 14.4375 10.8281 14.4375H46.9219C48.5173 14.4375 50.0474 15.0713 51.1756 16.1994C52.3037 17.3276 52.9375 18.8577 52.9375 20.4531C52.9375 22.0486 52.3037 23.5787 51.1756 24.7068C50.0474 25.835 48.5173 26.4688 46.9219 26.4688H45.7188V31.0069L59.0253 19.9791C57.7259 15.489 53.3778 11.4297 46.9219 11.4297C46.4432 11.4297 45.9842 11.2396 45.6458 10.9011C45.3073 10.5627 45.1172 10.1036 45.1172 9.625C45.1172 9.14637 45.3073 8.68734 45.6458 8.34889C45.9842 8.01045 46.4432 7.82031 46.9219 7.82031ZM43.3125 32.4844V28.875H14.4375V32.4844H43.3125ZM14.4375 36.0938V38.5H36.6737L39.578 36.0938H14.4375ZM14.4375 42.1094V44.5156H29.414L32.3183 42.1094H14.4375ZM14.4375 48.125V50.5312H22.1543L25.0587 48.125H14.4375ZM14.4375 54.1406V57.75H43.3125V54.1406H21.9883L20.9849 54.9178C20.7138 55.1358 20.3691 55.2407 20.0225 55.2106C19.676 55.1806 19.3544 55.018 19.1249 54.7566C18.9689 54.5835 18.8647 54.3701 18.8241 54.1406H14.4375ZM43.3125 50.5312V48.125H29.7364L26.6372 50.5312H43.3125ZM43.3125 44.5156V42.1094H37.487L34.3853 44.5156H43.3125ZM43.3125 38.5V37.5856L42.1334 38.5H43.3125ZM50.447 32.0488C53.2672 31.4786 55.3004 30.3982 56.6937 29.1108C57.8655 28.028 58.6427 26.7407 59.0638 25.3571L50.447 32.0464V32.0488ZM68.5781 16.2422C68.5781 15.7636 68.388 15.3045 68.0495 14.9661C67.7111 14.6276 67.2521 14.4375 66.7734 14.4375C66.2948 14.4375 65.8358 14.6276 65.4973 14.9661C65.1589 15.3045 64.9688 15.7636 64.9688 16.2422C64.9688 16.7208 65.1589 17.1798 65.4973 17.5183C65.8358 17.8567 66.2948 18.0469 66.7734 18.0469C67.2521 18.0469 67.7111 17.8567 68.0495 17.5183C68.388 17.1798 68.5781 16.7208 68.5781 16.2422Z" fill="black"/>
</g>
</svg>
