<svg width="75" height="75" viewBox="0 0 75 75" fill="none" xmlns="http://www.w3.org/2000/svg">
<g id="game-icons:clothes">
<path id="Vector" d="M19.5264 4.89404L11.4097 6.92139L5.06836 21.7236L9.94482 24.9756L13.9673 16.9336L16.4648 17.6514L14.2573 39.6387H35.918L37.2656 26.7627L37.3975 25.5762H38.0566L37.2656 17.6514L39.7705 16.9336L43.7842 24.9756L48.6621 21.7236L42.3193 6.92139L34.2041 4.89404C33.3984 5.46094 32.417 5.80371 31.3477 6.05859C29.9707 6.38232 28.418 6.5332 26.8652 6.5332C25.3125 6.5332 23.7598 6.38232 22.3828 6.05859C21.3135 5.80371 20.332 5.4624 19.5264 4.89404ZM39.7705 28.2129L39.5508 30.2637H65.7422L65.5225 28.2129H39.7705ZM39.2725 32.9004L35.3613 70.1074H44.5459L51.3574 38.335H53.9355L60.7471 70.1074H69.9316L66.0205 32.9004H39.2725Z" fill="black"/>
</g>
</svg>
